# xmcd
#
# Track frame offsets:
#	150
#	23832
#	43305
#	57175
#	72467
#	94317
#	108860
#	122100
#	133032
#	147880
#	160707
#	174425
#	191485
#	204355
#	220957
#	236705
#	250285
#	265625
#	278485
#	292580
#
# Disc length: 4121 seconds
# Revision: 1
# Processed by: cddbd v1.5.2PL0 Copyright (c) Steve Scherf et al.
# Submitted via: dBpowerAMP V12.0
#
DISCID=23101714
DTITLE=David Allan Coe - For The Record: The First 10 Years (1974-1984)
DYEAR=1984
DGENRE=Country
TTITLE0=You Never Even Called Me By My Name
TTITLE1=Please Come to Boston
TTITLE2=Jody Like a Melody
TTITLE3=Longhaired Redneck
TTITLE4=If That Ain't Country
TTITLE5=Willie, Waylon and Me
TTITLE6=Take This Job and Shove It
TTITLE7=Just To Prove My Love For You
TTITLE8=Jack Daniels , If You Please
TTITLE9=Would You Lay With Me (In a Field of Stone)
TTITLE10=Divers Do It Deeper
TTITLE11=X's and O's (Kisses and Hugs)
TTITLE12=This Bottle (In My Hand) (with George Jones)
TTITLE13=Get a Little Dirt on Your Hands (with Bill Anderson)
TTITLE14=Stand By Your Man
TTITLE15=Tennessee Whiskey
TTITLE16=Now I Lay Me Down to Cheat
TTITLE17=What Made You Change Your Mind
TTITLE18=The Ride
TTITLE19=Mona Lisa Lost Her Smile
EXTD=
EXTT0=
EXTT1=
EXTT2=
EXTT3=
EXTT4=
EXTT5=
EXTT6=
EXTT7=
EXTT8=
EXTT9=
EXTT10=
EXTT11=
EXTT12=
EXTT13=
EXTT14=
EXTT15=
EXTT16=
EXTT17=
EXTT18=
EXTT19=
PLAYORDER=
